<svg width="28" height="29" viewBox="0 0 28 29" fill="none" xmlns="http://www.w3.org/2000/svg">
<path fill-rule="evenodd" clip-rule="evenodd" d="M21.6488 6.78855C21.6488 9.48044 20.9799 12.9913 19.9509 12.4585C19.5301 13.8327 18.6467 15.0188 17.4507 15.8155C16.2547 16.6123 14.8198 16.9705 13.3897 16.8294C11.9595 16.6884 10.6223 16.0566 9.60504 15.0416C8.58777 14.0265 7.95317 12.6906 7.80901 11.2608C6.78779 9.47421 5.44845 5.8941 8.89167 3.10344C8.95389 3.08321 8.99123 2.91521 9.04723 2.66788C9.26034 1.73221 9.73245 -0.347564 12.7106 0.0498806C15.0073 0.355547 21.6488 1.54166 21.6488 6.78932V6.78855ZM18.6886 8.48566C18.6886 8.48566 18.337 9.51388 18.6668 10.6595C18.6625 11.8811 18.1794 13.0523 17.3212 13.9216C16.463 14.791 15.2982 15.2892 14.0768 15.3092C12.8554 15.3293 11.6748 14.8696 10.7885 14.0289C9.90225 13.1882 9.38095 12.0335 9.33656 10.8128C9.44934 10.385 9.44934 9.66088 9.44856 8.85588C9.44778 7.40377 9.44623 5.69032 10.1112 4.99188C14.7693 8.09444 18.6886 8.48566 18.6886 8.48566Z" fill="#808080" fill-opacity="0.85"/>
<path d="M5.44444 24.0474C5.44444 23.2059 5.89011 22.4686 6.559 22.0579C6.53353 21.9611 6.50967 21.8638 6.48744 21.7662C6.36942 21.2349 6.27727 20.6981 6.21133 20.1578C6.1445 19.6401 6.10427 19.1193 6.09078 18.5976C2.80778 19.8863 0 22.1326 0 24.4908V28.7141H28V24.4908C28 22.2321 25.4256 20.0769 22.3238 18.7663V18.7881C22.3378 19.2626 22.3113 19.807 22.26 20.3304C22.2133 20.8158 22.1441 21.2996 22.0609 21.7141H22.5556C22.7 21.7142 22.8415 21.7545 22.9643 21.8304C23.0871 21.9064 23.1863 22.015 23.2509 22.1442L24.0287 23.6998C24.0831 23.8079 24.1111 23.9269 24.1111 24.0474V25.603C24.1111 25.8093 24.0292 26.0071 23.8833 26.153C23.7374 26.2988 23.5396 26.3808 23.3333 26.3808H21.7778V24.8252H22.5556V24.231L22.0749 23.2697H19.9251L19.4444 24.231V24.8252H20.2222V26.3808H18.6667C18.4604 26.3808 18.2626 26.2988 18.1167 26.153C17.9708 26.0071 17.8889 25.8093 17.8889 25.603V24.0474C17.8889 23.9269 17.9169 23.8079 17.9713 23.6998L18.7491 22.1442C18.8137 22.015 18.9129 21.9064 19.0357 21.8304C19.1585 21.7545 19.3 21.7142 19.4444 21.7141H20.4672C20.4843 21.6472 20.5014 21.5733 20.5186 21.4917C20.5963 21.1253 20.6656 20.661 20.7122 20.1811C20.7589 19.7004 20.7807 19.2237 20.769 18.8317C20.7661 18.6693 20.7534 18.5072 20.7309 18.3463C20.7138 18.2359 20.6967 18.1853 20.6936 18.1744C20.6928 18.1721 20.692 18.1713 20.6936 18.1729L20.6959 18.1721C20.2832 18.0439 19.8657 17.9316 19.4444 17.8353C19.0532 17.7459 18.6488 18.2841 18.4722 18.6209H9.33333C9.31062 18.5775 9.28832 18.534 9.26644 18.4902C9.10156 18.162 8.89856 17.7568 8.55556 17.8353C8.25611 17.903 7.95667 17.9808 7.65722 18.0663C7.64757 18.2027 7.64342 18.3395 7.64478 18.4762C7.64789 18.9063 7.68911 19.4329 7.75522 19.9649C7.82133 20.4953 7.91078 21.0118 8.00411 21.4193C8.03056 21.5368 8.057 21.6426 8.08189 21.7336C8.52656 21.792 8.94495 21.9774 9.28699 22.2675C9.62904 22.5575 9.88023 22.9401 10.0105 23.3692C10.1408 23.7984 10.1446 24.256 10.0215 24.6873C9.89848 25.1185 9.65373 25.5052 9.31659 25.801C8.97946 26.0968 8.56423 26.2891 8.1206 26.355C7.67698 26.4209 7.22376 26.3575 6.81521 26.1725C6.40666 25.9875 6.06009 25.6887 5.81698 25.3118C5.57387 24.9349 5.44453 24.4959 5.44444 24.0474Z" fill="#808080" fill-opacity="0.85"/>
<path d="M8.55556 24.0475C8.55556 24.4939 8.19622 24.8369 7.77778 24.8369C7.35933 24.8369 7 24.4947 7 24.0475C7 23.6011 7.35933 23.2581 7.77778 23.2581C8.19622 23.2581 8.55556 23.6003 8.55556 24.0475Z" fill="#808080" fill-opacity="0.85"/>
</svg>
